#!OML:ASF F:\VICON\USERDATA\INSTALL\rory3\rory3.ASF
:FULLY-SPECIFIED
:DEGREES
230
root -1.97175 18.0601 18.9187 174.164 10.9795 -180.063
lowerback 21.0637 1.71041 -5.7249
upperback 1.81386 1.4211 1.4685
thorax -9.98808 1.10541 4.46023
lowerneck -9.68543 -2.00183 -1.69126
upperneck 29.3086 -0.805744 1.69739
head 11.0685 0.447058 0.968539
rclavicle 3.00662e-014 -1.11319e-014
rhumerus -41.3052 -14.7978 -69.3869
rradius 40.9436
rwrist -3.58788
rhand -12.0463 10.8539
rfingers 7.12502
rthumb 14.0123 -18.6538
lclavicle 3.00662e-014 -1.11319e-014
lhumerus -47.2672 -6.4597 92.601
lradius 123.682
lwrist -3.03641
lhand -22.0121 266.241
lfingers 7.12502
lthumb 4.39707 -123.693
rfemur -23.2152 -14.0056 19.8985
rtibia 67.0665
rfoot -9.18317 -14.283
rtoes 13.9763
lfemur -11.7731 1.66689 -20.7873
ltibia 32.1098
lfoot -10.0921 0.786531
ltoes -19.2589
231
root -1.97093 18.0456 18.7961 174.237 11.2497 -180.137
lowerback 21.0016 1.8055 -5.79136
upperback 1.99112 1.55005 1.41346
thorax -9.77046 1.16463 4.39884
lowerneck -10.0566 -1.98365 -1.57847
upperneck 29.2678 -0.815256 1.58696
head 11.1261 0.424857 0.904311
rclavicle 5.82563e-014 -5.76476e-015
rhumerus -41.0046 -14.7434 -69.821
rradius 41.2267
rwrist -3.70075
rhand -12.0005 10.9121
rfingers 7.12502
rthumb 14.0565 -18.5925
lclavicle 5.82563e-014 -5.76476e-015
lhumerus -47.4249 -7.52908 93.9143
lradius 122.365
lwrist -4.17365
lhand -23.0126 267.633
lfingers 7.12502
lthumb 3.43088 -122.319
rfemur -24.1072 -13.8897 20.1226
rtibia 65.888
rfoot -10.0983 -14.0597
rtoes 14.2347
lfemur -11.3956 2.13422 -20.9291
ltibia 32.2858
lfoot -10.4357 1.17334
ltoes -17.5111
232
root -1.96848 18.0396 18.6863 174.264 10.8938 -180.275
lowerback 21.5163 1.7665 -5.90914
upperback 1.98746 1.44866 1.37622
thorax -10.0443 1.13407 4.45067
lowerneck -10.3974 -1.96603 -1.40912
upperneck 29.3381 -0.772821 1.34102
head 11.2187 0.425914 0.790175
rclavicle -2.00151e-014 -1.98785e-015
rhumerus -40.7931 -14.6546 -70.1165
rradius 41.4331
rwrist -3.73623
rhand -12.3675 10.4278
rfingers 7.12502
rthumb 13.7028 -19.1011
lclavicle -2.00151e-014 -1.98785e-015
lhumerus -47.7044 -8.53981 95.3813
lradius 120.701
lwrist -5.38822
lhand -23.9154 269.172
lfingers 7.12502
lthumb 2.5591 -120.793
rfemur -24.9124 -14.28 20.1772
rtibia 64.5633
rfoot -10.5737 -14.1646
rtoes 13.8741
lfemur -11.1726 2.0702 -21.2529
ltibia 32.4039
lfoot -10.6142 1.62783
ltoes -17.0602
233
root -1.96546 18.0449 18.5777 174.421 10.3532 -180.848
lowerback 21.8063 1.61406 -6.53599
upperback 1.63154 1.02611 1.28101
thorax -10.5611 0.972846 4.83525
lowerneck -9.43867 -1.86396 -1.60769
upperneck 29.1573 -0.53974 1.39334
head 10.9547 0.538202 0.872684
rclavicle 1.83627e-014 -1.89839e-014
rhumerus -41.1667 -13.8549 -70.4462
rradius 41.7723
rwrist -3.82046
rhand -12.7717 10.1136
rfingers 7.12502
rthumb 13.3133 -19.4411
lclavicle 1.83627e-014 -1.89839e-014
lhumerus -48.4853 -9.05608 96.9163
lradius 118.577
lwrist -6.47602
lhand -25.0915 89.4108
lfingers 7.12502
lthumb 1.42324 -119.386
rfemur -25.7928 -14.953 19.7627
rtibia 63.054
rfoot -10.7063 -14.4618
rtoes 11.3979
lfemur -11.2039 1.97743 -22.0437
ltibia 32.4558
lfoot -10.78 1.60159
ltoes -14.9183
234
root -1.96658 18.041 18.4625 174.652 9.93609 -181.165
lowerback 21.7545 1.41467 -6.70847
upperback 1.79112 0.73387 1.14286
thorax -10.3111 0.834432 4.86778
lowerneck -10.2174 -1.8014 -1.44779
upperneck 29.2738 -0.501003 1.25884
head 11.1534 0.533837 0.799442
rclavicle 2.62396e-014 1.17283e-014
rhumerus -40.4475 -13.8112 -71.0266
rradius 41.7778
rwrist -3.60628
rhand -13.2137 10.3883
rfingers 7.12502
rthumb 12.8872 -19.1938
lclavicle 2.62396e-014 1.17283e-014
lhumerus -48.0651 -9.66688 98.1243
lradius 115.995
lwrist -7.71588
lhand -26.0421 87.6527
lfingers 7.12502
lthumb 0.505072 -117.632
rfemur -26.5779 -15.5263 19.5646
rtibia 61.35
rfoot -11.091 -14.5843
rtoes 10.5767
lfemur -11.2392 1.8568 -22.6123
ltibia 32.5233
lfoot -10.9354 1.75111
ltoes -13.156
235
root -1.95688 18.0449 18.3295 174.805 10.2086 -180.857
lowerback 21.5229 1.42501 -6.37962
upperback 1.85586 0.846689 1.15367
thorax -10.1227 0.865176 4.65564
lowerneck -10.1369 -1.80967 -1.23081
upperneck 29.192 -0.519479 1.08537
head 11.1039 0.525236 0.694595
rclavicle -1.26849e-014 -2.43511e-015
rhumerus -40.272 -13.5233 -71.6069
rradius 42.0225
rwrist -3.66566
rhand -13.5074 9.94274
rfingers 7.12502
rthumb 12.604 -19.657
lclavicle -1.26849e-014 -2.43511e-015
lhumerus -47.9584 -10.2707 99.1815
lradius 113.183
lwrist -8.72507
lhand -27.0974 86.2254
lfingers 7.12502
lthumb -0.51418 -116.204
rfemur -27.0024 -15.4001 20.1862
rtibia 59.3773
rfoot -11.5318 -14.9326
rtoes 9.09226
lfemur -10.8903 2.35332 -22.3781
ltibia 32.5207
lfoot -11.395 1.98434
ltoes -12.0893
236
root -1.94676 18.0456 18.2015 174.908 10.4375 -180.485
lowerback 21.157 1.43619 -5.92651
upperback 2.14058 1.02703 1.18793
thorax -9.61942 0.918712 4.3782
lowerneck -10.0934 -1.81462 -1.25452
upperneck 28.8405 -0.606852 1.17457
head 10.9623 0.471541 0.712567
rclavicle -4.86401e-015 -7.05686e-015
rhumerus -39.8361 -13.2733 -72.2481
rradius 42.4887
rwrist -3.94017
rhand -13.6102 9.42546
rfingers 7.12502
rthumb 12.5049 -20.1804
lclavicle -4.86401e-015 -7.05686e-015
lhumerus -47.1901 -10.9857 100.091
lradius 110.08
lwrist -9.6661
lhand -28.0524 84.5167
lfingers 7.12502
lthumb -1.43655 -114.492
rfemur -27.2278 -15.2406 20.8607
rtibia 57.2449
rfoot -11.9577 -15.2615
rtoes 7.54225
lfemur -10.4656 2.57358 -22.0686
ltibia 32.4656
lfoot -11.6988 2.26223
ltoes -10.1737
237
root -1.94077 18.0427 18.0918 174.936 10.0891 -180.837
lowerback 21.4562 1.43032 -6.14667
upperback 2.10807 0.937241 1.03257
thorax -9.80773 0.890559 4.35741
lowerneck -9.94269 -1.92395 -1.20702
upperneck 28.8145 -0.75197 1.13398
head 10.9237 0.409674 0.672263
rclavicle 2.55314e-015 5.76476e-015
rhumerus -39.8158 -13.2469 -72.6593
rradius 42.9829
rwrist -4.02798
rhand -13.8225 8.88686
rfingers 7.12502
rthumb 12.3003 -20.7314
lclavicle 2.55314e-015 5.76476e-015
lhumerus -46.519 -11.5583 100.784
lradius 106.449
lwrist -10.4141
lhand -29.0215 82.7168
lfingers 7.12502
lthumb -2.37249 -112.683
rfemur -27.4467 -15.643 20.5749
rtibia 55.0414
rfoot -12.4193 -14.7789
rtoes 8.50023
lfemur -10.128 2.50905 -22.587
ltibia 32.3151
lfoot -11.7908 2.14682
ltoes -8.04123
238
root -1.93067 18.035 17.9806 174.95 9.62064 -181.136
lowerback 21.5247 1.35975 -6.25456
upperback 2.29385 0.831344 0.875849
thorax -9.62099 0.842346 4.2749
lowerneck -10.0669 -1.95854 -1.06375
upperneck 28.6722 -0.842506 1.0487
head 10.8939 0.36045 0.601894
rclavicle 3.34517e-015 4.19933e-015
rhumerus -39.3247 -13.4599 -73.119
rradius 43.1815
rwrist -4.02051
rhand -14.195 8.82687
rfingers 7.12502
rthumb 11.9411 -20.8126
lclavicle 3.34517e-015 4.19933e-015
lhumerus -45.3114 -12.087 101.144
lradius 102.945
lwrist -11.216
lhand -29.8566 81.1228
lfingers 7.12502
lthumb -3.179 -111.079
rfemur -27.6025 -16.0716 20.3249
rtibia 52.7327
rfoot -12.6141 -14.6168
rtoes 10.3524
lfemur -9.64702 2.17814 -23.053
ltibia 32.0409
lfoot -12.0524 2.2915
ltoes -8.74037
239
root -1.91965 18.0286 17.8683 175.124 9.23376 -181.08
lowerback 21.3916 1.22741 -6.14015
upperback 2.48604 0.725194 0.922262
thorax -9.31934 0.783369 4.2911
lowerneck -10.3463 -1.92491 -1.07717
upperneck 28.5886 -0.812123 0.98492
head 10.9175 0.349602 0.581228
rclavicle -5.31128e-015 6.80837e-015
rhumerus -38.7748 -13.3176 -73.5544
rradius 43.4916
rwrist -3.95007
rhand -14.3871 8.93536
rfingers 7.12502
rthumb 11.7559 -20.7147
lclavicle -5.31128e-015 6.80837e-015
lhumerus -43.9761 -12.0364 101.453
lradius 99.5089
lwrist -12.1919
lhand -30.6123 79.3484
lfingers 7.12502
lthumb -3.90873 -109.292
rfemur -27.8028 -16.3639 20.5104
rtibia 50.359
rfoot -12.9141 -15.0354
rtoes 11.6695
lfemur -9.18974 1.7294 -23.1259
ltibia 31.5928
lfoot -12.4785 2.62481
ltoes -9.74021
240
root -1.90774 18.0297 17.7565 175.309 8.68511 -181.094
lowerback 21.4476 1.08369 -6.10873
upperback 2.393 0.533233 0.967877
thorax -9.43083 0.694283 4.38051
lowerneck -9.94416 -1.97036 -1.06132
upperneck 28.4717 -0.815105 0.822765
head 10.7923 0.337787 0.520003
rclavicle 2.85008e-014 -5.46658e-015
rhumerus -38.8014 -12.706 -73.9993
rradius 43.9855
rwrist -4.1911
rhand -15.0528 8.76639
rfingers 7.12502
rthumb 11.1139 -20.9193
lclavicle 2.85008e-014 -5.46658e-015
lhumerus -42.9963 -11.8478 101.699
lradius 96.0234
lwrist -13.1002
lhand -31.2822 77.6778
lfingers 7.12502
lthumb -4.55563 -107.609
rfemur -27.9191 -16.7729 20.5395
rtibia 47.9293
rfoot -13.4391 -15.4667
rtoes 12.1455
lfemur -8.71914 1.16259 -23.2668
ltibia 31.0778
lfoot -12.7278 2.83642
ltoes -11.206
241
root -1.88676 18.0307 17.6519 175.358 8.02284 -181.745
lowerback 21.8019 1.07545 -6.84146
upperback 2.20107 0.299507 0.894136
thorax -9.81069 0.625094 4.79209
lowerneck -9.49796 -2.04936 -0.990781
upperneck 28.4364 -0.83385 0.576977
head 10.6889 0.32296 0.419878
rclavicle -1.88348e-014 4.27387e-015
rhumerus -38.9272 -12.1869 -74.3456
rradius 44.4808
rwrist -4.27154
rhand -15.6955 8.35172
rfingers 7.12502
rthumb 10.4939 -21.3663
lclavicle -1.88348e-014 4.27387e-015
lhumerus -41.8357 -11.9367 101.946
lradius 92.119
lwrist -13.7712
lhand -32.0338 76.1062
lfingers 7.12502
lthumb -5.2814 -106.02
rfemur -27.9733 -17.2504 19.8618
rtibia 45.458
rfoot -13.3593 -15.7348
rtoes 11.5148
lfemur -8.19131 0.842605 -24.0298
ltibia 30.5754
lfoot -12.8863 2.62968
ltoes -12.0195
242
root -1.86362 18.0323 17.5505 175.41 7.52311 -182.226
lowerback 21.8747 1.06121 -7.37169
upperback 2.27907 0.158747 0.817515
thorax -9.74178 0.580546 5.05298
lowerneck -9.4788 -2.0954 -0.960143
upperneck 28.2987 -0.919995 0.550488
head 10.6336 0.275711 0.392639
rclavicle 3.57812e-015 6.26172e-015
rhumerus -38.5325 -11.8999 -74.8787
rradius 44.9393
rwrist -4.32301
rhand -16.2667 7.58701
rfingers 7.12502
rthumb 9.94286 -22.1582
lclavicle 3.57812e-015 6.26172e-015
lhumerus -40.1445 -12.2572 102.1
lradius 87.9921
lwrist -14.5558
lhand -32.7732 74.8059
lfingers 7.12502
lthumb -5.99526 -104.701
rfemur -27.9204 -17.3647 19.3531
rtibia 42.9127
rfoot -12.9655 -15.8299
rtoes 12.3525
lfemur -7.70161 0.744271 -24.5381
ltibia 30.1312
lfoot -13.0716 2.27318
ltoes -11.4872
243
root -1.84143 18.0416 17.4401 175.508 7.38982 -182.024
lowerback 21.621 1.08265 -7.16134
upperback 2.45125 0.284517 0.874042
thorax -9.42803 0.621988 4.95428
lowerneck -9.41335 -2.22482 -1.05385
upperneck 28.2737 -1.11785 0.682286
head 10.6148 0.191917 0.432995
rclavicle 1.18898e-014 2.78299e-015
rhumerus -38.1164 -11.8887 -75.38
rradius 45.1107
rwrist -4.19791
rhand -16.8229 7.23114
rfingers 7.12502
rthumb 9.40625 -22.539
lclavicle 1.18898e-014 2.78299e-015
lhumerus -38.4208 -12.9411 102.3
lradius 83.7876
lwrist -15.2195
lhand -33.5121 73.7014
lfingers 7.12502
lthumb -6.70856 -103.575
rfemur -27.6877 -16.7592 19.5768
rtibia 40.3239
rfoot -12.7003 -16.4659
rtoes 12.1488
lfemur -7.18066 0.933897 -24.2412
ltibia 29.7141
lfoot -13.2403 1.95282
ltoes -11.7434
244
root -1.81757 18.056 17.3311 175.716 7.21889 -181.416
lowerback 21.6048 1.06001 -6.58631
upperback 2.46019 0.409036 1.05252
thorax -9.42657 0.661932 4.78546
lowerneck -9.14109 -2.32097 -0.924819
upperneck 28.1526 -1.23758 0.555695
head 10.5145 0.139457 0.352126
rclavicle -1.19271e-015 6.16232e-015
rhumerus -37.9085 -11.739 -75.8404
rradius 45.1998
rwrist -3.86362
rhand -17.539 7.48764
rfingers 7.12502
rthumb 8.71524 -22.3124
lclavicle -1.19271e-015 6.16232e-015
lhumerus -36.6556 -13.5805 102.52
lradius 79.3008
lwrist -15.4078
lhand -34.944 71.271
lfingers 7.12502
lthumb -8.09073 -101.096
rfemur -27.3884 -15.865 20.1564
rtibia 37.7577
rfoot -12.7713 -17.3499
rtoes 13.9221
lfemur -6.80271 1.22624 -23.4543
ltibia 29.3908
lfoot -13.2744 1.4284
ltoes -11.7241
